PathFileType	3	(X/Y/Z)	RCH0000002 BBF 09.c3d
DataRate	CameraRate	NumFrames	NumMarkers	Units	OrigDataRate	OrigDataStartFrame	OrigNumFrames
100.0	100.0	9	23	mm	100.0	422	352
Frame#	Time	T2			T10			MAN			LASI			RASI			LPSI			RPSI			LPAT			LKNE			LANK			LMED			LHEE			LTOE			RPAT			RKNE			RANK			RMED			RHEE			RTOE			RTHI			LTHI			RTIB			LTIB			
		X1	Y1	Z1	X2	Y2	Z2	X3	Y3	Z3	X4	Y4	Z4	X5	Y5	Z5	X6	Y6	Z6	X7	Y7	Z7	X8	Y8	Z8	X9	Y9	Z9	X10	Y10	Z10	X11	Y11	Z11	X12	Y12	Z12	X13	Y13	Z13	X14	Y14	Z14	X15	Y15	Z15	X16	Y16	Z16	X17	Y17	Z17	X18	Y18	Z18	X19	Y19	Z19	X20	Y20	Z20	X21	Y21	Z21	X22	Y22	Z22	X23	Y23	Z23	

422	4.210	1205.59087	9.20617	965.63270	1222.14175	4.32782	771.74252	1335.87725	35.49265	933.98437	1290.85377	108.03505	624.55710	1345.66888	-58.97352	639.85111	1199.84129	25.23190	673.35925	1220.03400	-41.80029	680.13741	1277.17376	66.56382	332.18887	1213.29453	113.00643	309.65565	1028.93032	106.91106	110.87794	1040.76477	38.96350	125.16876	1018.10297	70.01810	161.42450	1060.38179	69.17145	75.51250	1413.66620	20.15709	380.58414	1390.92971	-41.77841	336.21388	1349.41555	-68.82666	70.65466	1318.49557	-5.48640	79.21130	1295.54068	-53.16684	99.88095	1381.12245	-21.39823	65.91997	1394.73458	-117.48366	443.69732	1217.32213	181.16477	435.48085	1393.51929	-115.22140	227.17592	1135.63583	174.53304	224.39909	
423	4.220	1215.86792	9.52524	965.88874	1233.01767	5.73518	771.95097	1346.32092	35.13228	934.53535	1302.76839	106.53286	623.21966	1355.14311	-60.96947	641.58143	1210.70774	26.10137	674.01618	1230.09562	-41.15892	682.33159	1293.87190	65.79093	331.53318	1230.02014	112.39216	308.63556	1042.46922	107.61767	113.81347	1054.44631	39.51370	127.06126	1032.72383	70.42977	164.17460	1072.96202	70.12578	77.24455	1416.41421	16.27323	379.38676	1392.87886	-45.64117	335.69772	1348.91983	-70.58068	69.86891	1317.93955	-7.27710	79.25942	1295.25420	-55.26408	99.58545	1380.45067	-23.05142	65.52883	1399.68416	-120.92351	443.30021	1232.09782	179.97025	434.82169	1394.21560	-118.28037	225.67720	1151.58174	174.39914	225.46120	
424	4.230	1226.01564	10.23081	966.70514	1243.58103	7.04018	772.77104	1356.60748	34.96134	935.54714	1314.47127	104.79493	622.62153	1364.24248	-63.21983	643.75524	1221.36976	26.77122	675.35055	1239.88370	-40.70454	685.02658	1310.60638	64.73754	331.99798	1246.92263	111.67198	308.54315	1057.09648	108.38913	116.84528	1069.33102	40.12574	128.94891	1048.15038	70.71369	166.77961	1087.05792	71.34729	79.31525	1418.45197	11.96353	378.77468	1394.09067	-49.88877	335.82399	1348.58536	-72.35761	69.53056	1317.56678	-9.15022	79.72828	1295.03709	-57.42285	99.66453	1379.94520	-24.73148	65.45228	1403.95178	-124.69434	443.50407	1246.95804	178.67547	435.05969	1394.41782	-121.64658	224.71949	1167.93204	174.20300	227.28148	
425	4.240	1236.04541	11.28714	968.07587	1253.82097	8.18669	774.19457	1366.73931	34.96699	937.01188	1325.96553	102.84643	622.79447	1372.97372	-65.70324	646.31869	1231.83121	27.22829	677.32371	1249.40258	-40.44911	688.14466	1327.34203	63.45981	333.60274	1263.95123	110.86588	309.41667	1072.72884	109.17434	119.94582	1085.38117	40.76225	130.80157	1064.31187	70.80240	169.21267	1102.63114	72.80967	81.70678	1419.86908	7.30977	378.66734	1394.60357	-54.42459	336.49127	1348.40839	-74.00884	69.55809	1317.44592	-10.92382	80.54182	1294.89700	-59.43546	100.03644	1379.65684	-26.31028	65.62168	1407.52713	-128.73626	444.18569	1261.86928	177.31914	436.21860	1394.07758	-125.21340	224.21449	1184.56762	173.93196	229.88174	
426	4.250	1245.97342	12.64006	969.96596	1263.73987	9.13070	776.18160	1376.72606	35.12914	938.89561	1337.26426	100.72036	623.72504	1381.34908	-68.38988	649.20047	1242.09942	27.47879	679.86039	1258.65916	-40.38677	691.58776	1344.06705	62.02944	336.30630	1281.07844	110.00205	311.23926	1089.28088	109.92334	123.07658	1102.53792	41.38646	132.59184	1081.14971	70.64933	171.45156	1119.60335	74.46680	84.38262	1420.77556	2.42298	378.97604	1394.49635	-59.13088	337.59042	1348.35972	-75.42874	69.88163	1317.60464	-12.46114	81.63068	1294.82296	-61.14318	100.63866	1379.59851	-27.70022	65.97653	1410.43629	-132.96744	445.21927	1276.81970	175.94604	438.26869	1393.17987	-128.86951	224.07883	1201.39905	173.58066	233.22673	
427	4.260	1255.81911	14.22163	972.31333	1273.35140	9.84415	778.66291	1386.58368	35.42104	941.13937	1348.38777	98.45471	625.35581	1389.38419	-71.24290	652.31666	1252.18345	27.54736	682.85348	1267.66126	-40.49420	695.24356	1360.79079	60.52487	340.01414	1298.30106	109.11443	313.94265	1106.67372	110.59639	126.19025	1120.72326	41.96880	134.29966	1098.61921	70.24017	173.48184	1137.86359	76.25784	87.29064	1421.29733	-2.56962	379.61118	1393.88393	-63.87922	339.01351	1348.40229	-76.55602	70.44377	1318.04103	-13.67591	82.93448	1294.80048	-62.44385	101.42736	1379.75892	-28.85346	66.46630	1412.74035	-137.29059	446.48792	1291.81854	174.60359	441.13073	1391.75392	-132.50579	224.23750	1218.37787	173.15359	237.22568	
428	4.270	1265.60331	15.95565	975.03272	1282.67818	10.31722	781.54459	1396.33295	35.81035	943.66236	1359.36052	96.08945	627.59029	1397.09640	-74.22031	655.57606	1262.09283	27.47439	686.17119	1276.41692	-40.73264	698.99228	1377.53941	59.02212	344.59009	1315.63823	108.23945	317.41577	1124.84127	111.17140	129.23381	1139.84374	42.49230	135.91510	1116.68860	69.59928	175.29867	1157.27876	78.11444	90.36708	1421.57101	-7.53999	380.48662	1392.90812	-68.54252	340.65977	1348.50380	-77.37033	71.19754	1318.73413	-14.53130	84.40183	1294.82179	-63.29202	102.37353	1380.11427	-29.75742	67.05011	1414.52839	-141.60218	447.89096	1306.89214	173.33770	444.68454	1389.87466	-136.02260	224.62506	1235.50216	172.66671	241.74058	
429	4.280	1275.34653	17.76385	978.02101	1291.74942	10.55889	784.71432	1405.99765	36.26064	946.36695	1370.20841	93.66356	630.30072	1404.50384	-77.27708	658.88551	1271.83710	27.31179	689.66587	1284.93430	-41.05151	702.71352	1394.34957	57.58673	349.87032	1333.12634	107.41252	321.51656	1143.73396	111.64844	132.15169	1159.79578	42.95593	137.43840	1135.33621	68.78977	176.90633	1177.70616	79.96895	93.54077	1421.73735	-12.37299	381.52172	1391.72494	-73.00619	342.43892	1348.64356	-77.88528	72.10302	1319.65217	-15.03353	85.98862	1294.89057	-63.69284	103.45736	1380.63687	-30.42763	67.69518	1415.90670	-145.80242	449.34718	1322.07676	172.18847	448.78067	1387.65582	-139.33611	225.18519	1252.81529	172.14777	246.60011	
430	4.290	1285.06737	19.57192	981.16377	1300.59856	10.59577	788.04846	1415.60261	36.73342	949.14495	1380.95651	91.21238	633.33798	1411.62525	-80.36739	662.15471	1281.42583	27.11774	693.18378	1293.22246	-41.39303	706.29278	1411.26057	56.26788	355.67804	1350.81105	106.66437	326.08563	1163.31967	112.05052	134.88859	1180.47280	43.37531	138.87678	1154.54733	67.90696	178.31498	1199.00624	81.76256	96.73707	1421.93343	-16.97607	382.64210	1390.49083	-77.17638	344.27247	1348.81390	-78.13894	73.12388	1320.75831	-15.22161	87.65558	1295.02155	-63.69113	104.66239	1381.30011	-30.89892	68.37461	1416.98689	-149.80389	450.79465	1337.40937	171.18612	453.25375	1385.23710	-142.38240	225.86953	1270.39765	171.63483	251.61694	
